<svg width="100%" height="auto" viewBox="0 0 48 48" fill="none" xmlns="http://www.w3.org/2000/svg">
<path fill-rule="evenodd" clip-rule="evenodd" d="M24.7743 16.5558C24.7655 24.2634 18.518 30.6687 10.2579 32.0439C9.30901 30.321 8.79507 28.2198 8.80482 25.6984C8.79415 16.703 15.459 13.0396 24.0203 13.0488L24.3235 13.0493C24.3305 13.0563 24.3305 13.0632 24.3305 13.0697C24.6257 14.1928 24.7757 15.3571 24.7743 16.5558" fill="#D87737"/>
<path fill-rule="evenodd" clip-rule="evenodd" d="M38.9149 20.2423C38.7357 20.545 38.563 20.7864 38.3977 20.9716C37.005 22.5273 36.0569 20.0464 34.8875 18.7362C34.8457 18.6949 34.8118 18.6536 34.7705 18.6123C34.0755 17.895 33.3118 17.2539 32.4789 16.7019C32.4511 16.6879 32.4306 16.6675 32.4032 16.6601C30.7514 15.6322 27.7885 16.1591 30.3605 13.9511C33.5518 11.6884 39.57 7.5421 40.8156 8.62474C41.0082 8.77655 41.1387 9.06578 41.2069 9.45158C41.6457 11.6698 40.3235 17.22 38.9149 20.2423" fill="#21140D"/>
<path fill-rule="evenodd" clip-rule="evenodd" d="M30.6893 14.3658C30.1219 14.8552 29.9525 15.1091 29.9023 15.2136C30.0695 15.3152 30.5152 15.4327 30.8216 15.5135C31.4084 15.6685 32.0713 15.8431 32.6447 16.189C32.6883 16.2089 32.7204 16.2298 32.7394 16.2424C32.751 16.2489 32.7626 16.2558 32.7738 16.2632C33.621 16.8245 34.4233 17.4898 35.1521 18.2465C35.1716 18.2739 35.1972 18.293 35.2213 18.3194C35.2418 18.3413 35.2636 18.3621 35.284 18.3863C35.5872 18.7257 35.868 19.1268 36.1401 19.5149C36.5783 20.1407 37.1234 20.9193 37.5045 20.9416C37.6763 20.9518 37.8741 20.773 38.0101 20.6212C38.1517 20.4624 38.3012 20.2521 38.4544 19.9963C39.7877 17.1203 41.1081 11.6411 40.6958 9.55335C40.6234 9.14852 40.5069 9.04639 40.4943 9.03756C40.453 9.00275 39.9043 8.58027 36.5844 10.4893C34.5885 11.6369 32.388 13.162 30.6893 14.3658V14.3658ZM29.1029 15.9181C28.9817 15.7969 28.8949 15.6497 28.8527 15.4663C28.7287 14.9259 29.0676 14.3716 30.0217 13.5522C30.0347 13.542 30.0472 13.5322 30.0602 13.5225C38.3843 7.6218 40.3165 7.49088 41.1643 8.22812C41.4382 8.44353 41.6346 8.82933 41.7288 9.35951C42.1968 11.7281 40.8356 17.3749 39.3959 20.4645C39.3885 20.4803 39.3806 20.4956 39.3718 20.5105C39.1796 20.8341 38.9855 21.1075 38.7938 21.322C38.3708 21.7946 37.9154 22.0198 37.4414 21.9914C36.5537 21.9385 35.934 21.055 35.2789 20.1186C35.0268 19.7593 34.7664 19.3884 34.5078 19.0963C34.4859 19.0741 34.4655 19.0513 34.4451 19.029C34.4307 19.0142 34.4172 18.9989 34.4019 18.984C33.7227 18.2797 32.9873 17.6688 32.2092 17.1511C32.2023 17.1474 32.1948 17.1428 32.1874 17.1381C32.1675 17.1293 32.148 17.1186 32.1289 17.107C31.6814 16.828 31.082 16.6701 30.5528 16.5309C29.9543 16.373 29.4144 16.2305 29.1029 15.9181V15.9181Z" fill="#1E120C"/>
<path fill-rule="evenodd" clip-rule="evenodd" d="M9.06884 20.2423C9.24851 20.545 9.42075 20.7864 9.58602 20.9716C10.9793 22.5273 11.9268 20.0464 13.0967 18.7362C13.138 18.6949 13.1724 18.6536 13.2137 18.6123C13.9082 17.895 14.6719 17.2539 15.5048 16.7019C15.5327 16.6879 15.5531 16.6675 15.5805 16.6601C17.2328 15.6322 20.1952 16.1591 17.6237 13.9511C14.4319 11.6884 8.41424 7.5421 7.16818 8.62474C6.97551 8.77655 6.84506 9.06578 6.77681 9.45158C6.33855 11.6698 7.66029 17.22 9.06884 20.2423" fill="#21140D"/>
<path fill-rule="evenodd" clip-rule="evenodd" d="M11.4031 10.4893C8.08316 8.58027 7.53441 9.00275 7.49309 9.03756C7.48055 9.04639 7.36402 9.14852 7.2916 9.55335C6.87934 11.6411 8.19968 17.1203 9.53349 19.9963C9.68623 20.2521 9.83572 20.4624 9.97732 20.6212C10.1133 20.773 10.3116 20.9518 10.4829 20.9416C10.864 20.9193 11.4096 20.1407 11.8473 19.5149C12.1194 19.1268 12.4007 18.7257 12.7039 18.3863C12.7243 18.3621 12.7457 18.3413 12.7661 18.3194C12.7907 18.293 12.8158 18.2739 12.8353 18.2465C13.5642 17.4898 14.3664 16.8245 15.2137 16.2632C15.2248 16.2558 15.2364 16.2489 15.248 16.2424C15.2675 16.2298 15.2991 16.2089 15.3427 16.189C15.9161 15.8431 16.5795 15.6685 17.1663 15.5135C17.4727 15.4327 17.9184 15.3152 18.0856 15.2136C18.0349 15.1091 17.866 14.8552 17.2982 14.3658C15.5995 13.162 13.3989 11.6369 11.4031 10.4893V10.4893ZM17.4339 16.5309C16.9047 16.6701 16.3053 16.828 15.8578 17.107C15.8392 17.1186 15.8193 17.1293 15.7993 17.1381C15.7919 17.1428 15.7849 17.1474 15.7775 17.1511C14.9994 17.6688 14.264 18.2797 13.5848 18.984C13.5699 18.9989 13.556 19.0142 13.5416 19.029C13.5212 19.0513 13.5008 19.0741 13.4794 19.0963C13.2203 19.3884 12.9599 19.7593 12.7083 20.1186C12.0527 21.055 11.4334 21.9385 10.5458 21.9914C10.0713 22.0198 9.61633 21.7946 9.19293 21.322C9.00166 21.1075 8.80713 20.8341 8.6154 20.5105C8.60657 20.4956 8.59868 20.4803 8.59125 20.4645C7.15113 17.3749 5.78993 11.7281 6.2579 9.35951C6.35261 8.82933 6.54853 8.44353 6.82244 8.22812C7.67063 7.49088 9.60287 7.6218 17.9265 13.5225C17.9395 13.5322 17.9525 13.542 17.965 13.5522C18.9191 14.3716 19.258 14.9259 19.134 15.4663C19.0918 15.6497 19.005 15.7969 18.8838 15.9181C18.5723 16.2305 18.0328 16.373 17.4339 16.5309V16.5309Z" fill="#1E120C"/>
<path fill-rule="evenodd" clip-rule="evenodd" d="M40.172 25.8636C40.1883 35.5893 33.1033 39.5694 23.9909 39.5592C17.5642 39.5522 12.1458 37.5624 9.53346 32.9723C8.61238 31.3664 8.03577 29.4509 7.88675 27.1844C7.85285 26.7438 7.83939 26.2958 7.83986 25.8274C7.83011 16.0947 14.9156 12.1212 24.0215 12.1319C24.1315 12.1319 24.2351 12.1319 24.3381 12.1393C25.8261 12.1546 27.2653 12.28 28.6148 12.5228C35.405 13.7284 40.2013 17.8459 40.172 25.8636" fill="#FEFCF6"/>
<path fill-rule="evenodd" clip-rule="evenodd" d="M38.4697 33.0113V33.0043C39.5667 31.0911 40.1758 28.729 40.1721 25.8636C40.2102 16.1314 33.127 12.1421 24.0216 12.1319H24.0202C14.9152 12.1221 7.82325 16.0952 7.83996 25.8274C7.83021 28.6928 8.43374 31.0563 9.5266 32.9723V32.9793C15.7128 30.8497 20.8233 27.034 24.01 22.2317C27.186 27.0414 32.2881 30.8683 38.4697 33.0113" fill="#21140D"/>
<path fill-rule="evenodd" clip-rule="evenodd" d="M10.0133 32.7614C11.6739 35.6282 15.4469 39.0242 23.9962 39.0335C29.3886 39.0395 33.6523 37.6286 36.3269 34.9531C38.539 32.7391 39.6579 29.681 39.6514 25.8649V25.8616C39.6741 20.6554 37.5757 14.1772 27.4517 12.8778C26.4763 12.751 25.4284 12.6795 24.3361 12.6647C24.3263 12.6647 24.3175 12.6642 24.3077 12.6637C24.2163 12.6572 24.1248 12.6577 24.0269 12.6572C18.6317 12.6517 14.3676 14.0621 11.6953 16.7362C9.48265 18.9498 8.36426 22.0083 8.37122 25.8263C8.36147 28.4981 8.90558 30.8143 9.98823 32.7122C9.99751 32.728 10.0059 32.7447 10.0133 32.7614M10.9544 35.706C10.2228 34.9724 9.59463 34.1498 9.07281 33.2403C9.06306 33.2227 9.05377 33.205 9.04634 33.1869C7.88849 31.1358 7.30678 28.66 7.31653 25.8257C7.31003 21.7203 8.53148 18.411 10.9489 15.9927C13.8231 13.1167 18.3449 11.5995 24.0246 11.606C24.1412 11.606 24.2512 11.6064 24.3612 11.6129C25.4889 11.6287 26.5729 11.7039 27.5836 11.8344C36.0753 12.924 40.7341 17.9069 40.6998 25.8637C40.7067 29.9692 39.4848 33.277 37.0674 35.6958C34.1918 38.5741 29.6704 40.0913 23.9926 40.0848C18.2586 40.0788 13.818 38.5755 10.9544 35.706" fill="#1E120C"/>
<path fill-rule="evenodd" clip-rule="evenodd" d="M22.508 28.2975C23.5293 29.3194 24.4764 29.3203 25.4996 28.3012C26.3938 27.2757 25.7253 26.4164 24.0061 26.4136C22.2865 26.4122 21.6161 27.2706 22.508 28.2975" fill="#1E120C"/>
<path fill-rule="evenodd" clip-rule="evenodd" d="M34.7469 29.1343C34.6847 29.0716 34.6378 28.9931 34.6127 28.9021C34.5357 28.6222 34.7 28.3325 34.9804 28.2559C37.2103 27.6435 39.4656 27.0855 42.5292 26.9759C42.8199 26.9653 43.0631 27.1923 43.0733 27.4825C43.0836 27.7721 42.857 28.0163 42.5668 28.0266C39.616 28.1319 37.4261 28.6751 35.259 29.2703C35.0696 29.3218 34.876 29.2638 34.7469 29.1343" fill="#1E120C"/>
<path fill-rule="evenodd" clip-rule="evenodd" d="M34.7079 30.853C34.6229 30.7676 34.5672 30.6538 34.5565 30.5248C34.5324 30.2355 34.7473 29.9816 35.037 29.9574C37.3411 29.7662 39.661 29.6325 42.6922 30.0888C42.9791 30.1315 43.1773 30.3999 43.1337 30.6877C43.091 30.9746 42.8226 31.1719 42.5357 31.1288C39.616 30.6891 37.3639 30.82 35.1239 31.0057C34.9632 31.0187 34.8137 30.9588 34.7079 30.853" fill="#1E120C"/>
<path fill-rule="evenodd" clip-rule="evenodd" d="M34.7436 32.7212C34.6391 32.6167 34.5797 32.4696 34.5913 32.3108C34.6126 32.0216 34.8647 31.8038 35.1544 31.8252C37.4608 31.9946 39.7733 32.223 42.6963 33.1446C42.9739 33.2333 43.1271 33.5276 43.0393 33.8048C42.9521 34.0815 42.6568 34.2351 42.3796 34.1478C39.5649 33.2597 37.3192 33.0387 35.0774 32.8739C34.9464 32.8646 34.8299 32.8075 34.7436 32.7212" fill="#1E120C"/>
<path fill-rule="evenodd" clip-rule="evenodd" d="M5.09106 27.8304C4.99171 27.7306 4.93229 27.5909 4.93786 27.4386C4.949 27.1489 5.19367 26.9224 5.48383 26.9335C8.54699 27.05 10.8014 27.6136 13.0298 28.2306C13.3098 28.3086 13.4737 28.5974 13.3961 28.8778C13.3186 29.1573 13.0289 29.3221 12.749 29.2446C10.5823 28.6443 8.39378 28.0965 5.44343 27.9846C5.30555 27.979 5.18159 27.921 5.09106 27.8304" fill="#1E120C"/>
<mask id="mask0_831_1154" style="mask-type:luminance" maskUnits="userSpaceOnUse" x="4" y="29" width="10" height="3">
<path fill-rule="evenodd" clip-rule="evenodd" d="M4.85938 29.7471H13.4446V31.0927H4.85938V29.7471Z" fill="white"/>
</mask>
<g mask="url(#mask0_831_1154)">
<path fill-rule="evenodd" clip-rule="evenodd" d="M5.01279 30.9379C4.93572 30.8608 4.88233 30.7596 4.86515 30.644C4.82244 30.3566 5.02114 30.0892 5.30805 30.047C8.3415 29.5966 10.6605 29.7359 12.9636 29.9327C13.2529 29.9574 13.4674 30.2118 13.4427 30.5015C13.4181 30.7907 13.1637 31.0052 12.8745 30.9801C10.6354 30.7893 8.38375 30.6542 5.46265 31.0869C5.29088 31.1124 5.12653 31.0521 5.01279 30.9379" fill="#1E120C"/>
</g>
<path fill-rule="evenodd" clip-rule="evenodd" d="M5.08681 33.9761C5.02925 33.9181 4.98375 33.8461 4.95775 33.7621C4.87093 33.4849 5.02553 33.1906 5.30269 33.1033C8.2289 32.1873 10.5409 31.9645 12.8473 31.8002C13.137 31.7797 13.3886 31.9975 13.4091 32.2872C13.43 32.5769 13.2113 32.8285 12.9221 32.8489C10.6802 33.0086 8.43456 33.225 5.61699 34.107C5.4234 34.1674 5.22098 34.1103 5.08681 33.9761" fill="#1E120C"/>
</svg>
