<svg width="24" height="24" viewBox="0 0 24 24" fill="none" xmlns="http://www.w3.org/2000/svg">
<path d="M11.8582 1C5.70612 1 1 5.67064 1 11.8227C1 16.7418 4.09601 20.9511 8.51826 22.4326C9.08601 22.5346 9.28561 22.1842 9.28561 21.8959C9.28561 21.6209 9.2723 20.1039 9.2723 19.1725C9.2723 19.1725 6.16742 19.8378 5.51539 17.8507C5.51539 17.8507 5.00974 16.5599 4.28231 16.2272C4.28231 16.2272 3.26657 15.5309 4.35328 15.5442C4.35328 15.5442 5.45773 15.6329 6.0654 16.6885C7.03678 18.4007 8.66463 17.9083 9.29892 17.6156C9.40093 16.9059 9.68924 16.4135 10.0086 16.1208C7.52913 15.8458 5.02748 15.4865 5.02748 11.2195C5.02748 9.99973 5.36458 9.38763 6.07427 8.60697C5.95895 8.31866 5.58192 7.12993 6.18959 5.59523C7.11662 5.30692 9.25012 6.79283 9.25012 6.79283C10.1372 6.54444 11.0909 6.41581 12.0357 6.41581C12.9804 6.41581 13.9341 6.54444 14.8212 6.79283C14.8212 6.79283 16.9547 5.30248 17.8817 5.59523C18.4894 7.13437 18.1124 8.31866 17.997 8.60697C18.7067 9.39206 19.1414 10.0042 19.1414 11.2195C19.1414 15.4998 16.5289 15.8414 14.0494 16.1208C14.4575 16.4712 14.8034 17.1365 14.8034 18.1789C14.8034 19.6737 14.7901 21.5233 14.7901 21.887C14.7901 22.1753 14.9942 22.5257 15.5575 22.4237C19.993 20.9511 23.0003 16.7418 23.0003 11.8227C23.0003 5.67064 18.0103 1 11.8582 1Z" fill="#111728"/>
</svg>
